# xmcd
#
# Track frame offsets:
#	150
#	14625
#	27045
#	41278
#	56207
#	68768
#	89021
#	99839
#	113745
#	126558
#	141069
#	157375
#	170053
#	186593
#	202128
#	219397
#	232114
#	248933
#	262594
#	276876
#
# Disc length: 3855 seconds
#
# Revision: 1
# Processed by: cddbd v1.5.2PL0 Copyright (c) Steve Scherf et al.
# Submitted via: EasyCDDAExtractor 12.0.5.1
#
DISCID=320f0d14
DTITLE=Charley Pride - 20 Super Hits
DYEAR=2005
DGENRE=Country
TTITLE0=Shouldn't it Be Easier Than This
TTITLE1=I'm Gonna Love Her on the Radio
TTITLE2=Have I Got Some Blues for You
TTITLE3=If You Still Want A Fool Around
TTITLE4=Where Was I
TTITLE5=You're So Good When You're Bad
TTITLE6=Walk On By
TTITLE7=Sea of Heartbreak
TTITLE8=I'll Be Leaving Alone
TTITLE9=Midnight Hour
TTITLE10=Walls
TTITLE11=Lone Star Lonely
TTITLE12=The Hunger
TTITLE13=Hello Love
TTITLE14=Just for the Love of It
TTITLE15=Hope You're Feelin Me (Like I'm Feeling You)
TTITLE16=I've Been There
TTITLE17=Burnin' Down the Town
TTITLE18=For Today
TTITLE19=I Came Straight to You
EXTD=
EXTT0=
EXTT1=
EXTT2=
EXTT3=
EXTT4=
EXTT5=
EXTT6=
EXTT7=
EXTT8=
EXTT9=
EXTT10=
EXTT11=
EXTT12=
EXTT13=
EXTT14=
EXTT15=
EXTT16=
EXTT17=
EXTT18=
EXTT19=
PLAYORDER=
